#!OML:ASF F:\VICON\USERDATA\INSTALL\rory3\rory3.ASF
:FULLY-SPECIFIED
:DEGREES
2996
root 1.24478 14.291 -13.4458 -540.4 -31.1867 533.027
lowerback 18.4855 -1.53785 -11.7858
upperback -0.87453 -4.63415 0.922538
thorax -10.4009 -1.54667 8.97798
lowerneck -12.1059 -6.38588 -4.33122
upperneck 19.1231 -9.46882 4.50792
head 8.35702 -4.56619 1.14241
rclavicle 6.00827e-014 -1.94809e-014
rhumerus 39.4458 54.7833 -41.6669
rradius 105.772
rwrist 17.0073
rhand -1.1114 27.1081
rfingers 7.12502
rthumb 24.5254 -1.34134
lclavicle 6.00827e-014 -1.94809e-014
lhumerus -17.0941 -57.1159 93.7916
lradius 58.7514
lwrist 82.4884
lhand 5.8324 32.7597
lfingers 7.12502
lthumb 31.1636 60.1298
rfemur -48.1934 -15.2251 9.24505
rtibia 66.4324
rfoot -11.7451 -3.03815
rtoes 4.07228
lfemur -17.0842 37.3262 -21.3415
ltibia 65.5929
lfoot -38.2488 13.002
ltoes -6.5813
2997
root 1.25647 14.2894 -13.471 -540.279 -31.258 532.909
lowerback 18.4145 -1.52338 -11.823
upperback -0.877198 -4.61851 0.881663
thorax -10.3683 -1.54138 8.94326
lowerneck -12.2239 -6.41281 -4.39293
upperneck 19.1887 -9.50497 4.56412
head 8.40831 -4.57831 1.16141
rclavicle 4.29126e-014 7.95139e-016
rhumerus 39.1426 54.6668 -42.0401
rradius 105.696
rwrist 17.0377
rhand -0.985108 27.5671
rfingers 7.12502
rthumb 24.6465 -0.865906
lclavicle 4.29126e-014 7.95139e-016
lhumerus -17.1188 -57.194 93.8062
lradius 58.7965
lwrist 82.5188
lhand 5.66199 32.4708
lfingers 7.12502
lthumb 31.0012 59.8721
rfemur -48.2788 -15.2178 9.21653
rtibia 66.5996
rfoot -11.8966 -3.17554
rtoes 3.52162
lfemur -17.0932 37.2532 -21.318
ltibia 65.6584
lfoot -38.3832 12.5022
ltoes -5.01825
2998
root 1.27208 14.2893 -13.5019 -540.29 -31.3402 533.021
lowerback 18.3605 -1.48948 -11.7753
upperback -0.889682 -4.54916 0.930006
thorax -10.3669 -1.50831 8.95079
lowerneck -12.2246 -6.47415 -4.69032
upperneck 19.1814 -9.58775 4.83038
head 8.43925 -4.61233 1.28644
rclavicle -2.53202e-014 1.98785e-015
rhumerus 38.7956 54.5394 -42.3073
rradius 105.668
rwrist 17.0497
rhand -0.862233 27.8227
rfingers 7.12502
rthumb 24.7643 -0.59409
lclavicle -2.53202e-014 1.98785e-015
lhumerus -17.1199 -57.2733 93.8659
lradius 58.8278
lwrist 82.5687
lhand 5.53945 32.2764
lfingers 7.12502
lthumb 30.8844 59.6999
rfemur -48.296 -15.1685 9.43373
rtibia 66.708
rfoot -12.0461 -3.32103
rtoes 4.23123
lfemur -17.126 37.2656 -21.0852
ltibia 65.6463
lfoot -37.8994 13.5394
ltoes -8.29619
2999
root 1.2814 14.2908 -13.5301 -540.396 -31.3788 533.18
lowerback 18.3281 -1.46864 -11.6254
upperback -0.85616 -4.4769 0.972855
thorax -10.3331 -1.48524 8.89245
lowerneck -12.2331 -6.54176 -4.8868
upperneck 19.1309 -9.67169 5.00258
head 8.44744 -4.64777 1.36477
rclavicle 3.25758e-014 -4.77083e-015
rhumerus 38.7926 54.4684 -42.1975
rradius 105.773
rwrist 17.2099
rhand -1.03939 27.5741
rfingers 7.12502
rthumb 24.5945 -0.86598
lclavicle 3.25758e-014 -4.77083e-015
lhumerus -16.9614 -57.2386 93.8291
lradius 58.7843
lwrist 82.5508
lhand 5.52353 32.3921
lfingers 7.12502
lthumb 30.8692 59.8184
rfemur -48.1897 -15.1592 9.63665
rtibia 66.7801
rfoot -12.2216 -3.10865
rtoes 6.29773
lfemur -17.0094 37.3014 -20.7844
ltibia 65.5924
lfoot -37.4462 14.5383
ltoes -11.3693
3000
root 1.28928 14.2882 -13.5499 -540.259 -31.4415 532.899
lowerback 18.3638 -1.43253 -11.7747
upperback -0.830373 -4.47419 0.915782
thorax -10.32 -1.48094 8.91415
lowerneck -12.3526 -6.59392 -4.93962
upperneck 19.1793 -9.72777 4.99945
head 8.49108 -4.67338 1.36066
rclavicle 9.29318e-014 -1.19271e-015
rhumerus 38.9487 54.3843 -42.0037
rradius 105.849
rwrist 17.3698
rhand -1.07367 27.336
rfingers 7.12502
rthumb 24.5616 -1.10851
lclavicle 9.29318e-014 -1.19271e-015
lhumerus -16.729 -57.0426 93.7015
lradius 58.7746
lwrist 82.4437
lhand 5.6054 32.7738
lfingers 7.12502
lthumb 30.9472 60.1853
rfemur -48.1899 -15.2967 9.40704
rtibia 66.9061
rfoot -12.3311 -2.96227
rtoes 5.96804
lfemur -16.8537 37.2121 -20.9486
ltibia 65.4973
lfoot -37.3851 14.5514
ltoes -11.2074
3001
root 1.29801 14.2921 -13.573 -540.2 -31.5313 532.808
lowerback 18.3669 -1.44789 -11.7931
upperback -0.843344 -4.50336 0.884993
thorax -10.3312 -1.49329 8.89742
lowerneck -12.3573 -6.55963 -4.77629
upperneck 19.1933 -9.67837 4.84046
head 8.47707 -4.65361 1.28801
rclavicle 5.80203e-014 -1.82882e-014
rhumerus 39.0186 54.3548 -41.9332
rradius 105.885
rwrist 17.3335
rhand -0.921821 27.3747
rfingers 7.12502
rthumb 24.7071 -1.04996
lclavicle 5.80203e-014 -1.82882e-014
lhumerus -16.7475 -56.7938 93.7273
lradius 58.7236
lwrist 82.3235
lhand 5.65123 32.7774
lfingers 7.12502
lthumb 30.9909 60.1806
rfemur -48.1458 -15.38 9.37123
rtibia 66.9758
rfoot -12.4994 -2.95774
rtoes 5.06987
lfemur -16.742 37.2145 -20.8916
ltibia 65.4212
lfoot -37.2325 14.7688
ltoes -11.6735
3002
root 1.30949 14.2971 -13.6097 -540.406 -31.5313 533.074
lowerback 18.327 -1.4389 -11.634
upperback -0.85155 -4.44411 0.932347
thorax -10.3379 -1.47069 8.84345
lowerneck -12.3739 -6.46106 -4.52981
upperneck 19.3245 -9.56236 4.63302
head 8.49473 -4.60303 1.19189
rclavicle -1.06673e-013 -1.27222e-014
rhumerus 38.8999 54.4632 -42.0266
rradius 105.969
rwrist 17.3034
rhand -0.830194 27.3346
rfingers 7.12502
rthumb 24.795 -1.07806
lclavicle -1.06673e-013 -1.27222e-014
lhumerus -16.9483 -56.6946 93.8742
lradius 58.7034
lwrist 82.2209
lhand 5.77668 32.7548
lfingers 7.12502
lthumb 31.1105 60.1352
rfemur -47.9584 -15.2791 9.71429
rtibia 67.0088
rfoot -12.6633 -3.07449
rtoes 4.69197
lfemur -16.5364 37.3373 -20.3816
ltibia 65.386
lfoot -36.7447 15.6566
ltoes -14.2722
3003
root 1.32311 14.2972 -13.6447 -540.443 -31.6297 533.058
lowerback 18.3283 -1.43004 -11.7143
upperback -0.841986 -4.44891 0.942678
thorax -10.3205 -1.47019 8.90184
lowerneck -12.3723 -6.42758 -4.50038
upperneck 19.3202 -9.514 4.60604
head 8.48767 -4.58052 1.18435
rclavicle 2.73702e-014 2.50469e-014
rhumerus 38.8579 54.6119 -42.0378
rradius 106.026
rwrist 17.4291
rhand -1.08027 27.0288
rfingers 7.12502
rthumb 24.5553 -1.41661
lclavicle 2.73702e-014 2.50469e-014
lhumerus -16.9479 -56.5499 93.8869
lradius 58.658
lwrist 82.1285
lhand 5.85658 32.9221
lfingers 7.12502
lthumb 31.1866 60.2878
rfemur -47.822 -15.2892 9.76487
rtibia 67.1066
rfoot -12.826 -3.01395
rtoes 6.15855
lfemur -16.3843 37.1165 -20.2209
ltibia 65.3417
lfoot -36.6742 15.8622
ltoes -14.8002
3004
root 1.3359 14.2993 -13.6655 -540.273 -31.7483 532.825
lowerback 18.2917 -1.47482 -11.9256
upperback -0.789912 -4.55111 0.926367
thorax -10.2035 -1.52104 9.0221
lowerneck -12.5005 -6.43145 -4.71626
upperneck 19.3032 -9.49284 4.75693
head 8.52294 -4.56527 1.26725
rclavicle -7.8023e-015 -2.34566e-014
rhumerus 39.2041 54.6513 -41.7835
rradius 106.071
rwrist 17.3949
rhand -1.23524 26.9491
rfingers 7.12502
rthumb 24.4067 -1.51642
lclavicle -7.8023e-015 -2.34566e-014
lhumerus -16.7047 -56.3371 93.6531
lradius 58.6217
lwrist 82.0486
lhand 5.73575 32.4939
lfingers 7.12502
lthumb 31.0715 59.8818
rfemur -47.8329 -15.3968 9.59064
rtibia 67.2189
rfoot -13.0787 -2.82121
rtoes 7.13454
lfemur -16.3659 36.823 -20.3936
ltibia 65.264
lfoot -36.822 15.4909
ltoes -13.6155
3005
root 1.34821 14.2999 -13.6906 -540.186 -31.8245 532.823
lowerback 18.2193 -1.50638 -11.9663
upperback -0.837686 -4.59083 0.942433
thorax -10.2031 -1.53401 9.06899
lowerneck -12.3968 -6.4259 -4.74652
upperneck 19.2562 -9.47888 4.74931
head 8.48863 -4.56465 1.27539
rclavicle -4.52235e-015 2.78299e-015
rhumerus 39.0022 54.5733 -42.0613
rradius 106.135
rwrist 17.1185
rhand -0.78803 27.4275
rfingers 7.12502
rthumb 24.8354 -0.979563
lclavicle -4.52235e-015 2.78299e-015
lhumerus -16.8685 -56.1917 93.7756
lradius 58.5678
lwrist 81.9768
lhand 5.74758 32.0056
lfingers 7.12502
lthumb 31.0828 59.3913
rfemur -47.913 -15.4349 9.66651
rtibia 67.3471
rfoot -13.2635 -2.76873
rtoes 7.4822
lfemur -16.3993 36.6912 -20.3473
ltibia 65.1891
lfoot -36.7475 15.4005
ltoes -13.5196
3006
root 1.35614 14.302 -13.7164 -540.192 -31.8619 532.816
lowerback 18.295 -1.464 -11.9121
upperback -0.911355 -4.5376 0.925009
thorax -10.3484 -1.49555 9.0161
lowerneck -12.2708 -6.42294 -4.68286
upperneck 19.2764 -9.47947 4.65191
head 8.46425 -4.57471 1.23688
rclavicle 1.31322e-014 2.38542e-014
rhumerus 38.4553 54.4651 -42.616
rradius 106.034
rwrist 17.0364
rhand -0.390862 28.167
rfingers 7.12502
rthumb 25.2159 -0.187009
lclavicle 1.31322e-014 2.38542e-014
lhumerus -17.1773 -56.1129 94.1031
lradius 58.5374
lwrist 81.9294
lhand 5.76764 31.8547
lfingers 7.12502
lthumb 31.1019 59.2367
rfemur -47.8361 -15.4968 9.73856
rtibia 67.4577
rfoot -13.4046 -2.77028
rtoes 6.98039
lfemur -16.2093 36.7102 -20.1767
ltibia 65.0931
lfoot -36.6226 15.4303
ltoes -14.504
3007
root 1.36278 14.3005 -13.743 -539.957 -31.9581 532.436
lowerback 18.2608 -1.42544 -12.1276
upperback -0.942612 -4.5437 0.825226
thorax -10.3579 -1.4881 9.02605
lowerneck -12.2491 -6.44675 -4.74817
upperneck 19.2243 -9.50527 4.70895
head 8.45041 -4.58565 1.26454
rclavicle 5.41067e-014 -1.51076e-014
rhumerus 38.185 54.4192 -42.7799
rradius 106.039
rwrist 17.2174
rhand -0.486514 28.2653
rfingers 7.12502
rthumb 25.1243 -0.101603
lclavicle 5.41067e-014 -1.51076e-014
lhumerus -17.2235 -56.2908 94.1908
lradius 58.484
lwrist 82.125
lhand 5.76443 31.8233
lfingers 7.12502
lthumb 31.0988 59.2059
rfemur -47.8344 -15.7066 9.44228
rtibia 67.5896
rfoot -13.494 -2.66045
rtoes 6.60938
lfemur -16.1238 36.694 -20.4415
ltibia 65.0072
lfoot -36.2178 16.2425
ltoes -16.8849
3008
root 1.37505 14.3034 -13.7696 -539.927 -32.0608 532.539
lowerback 18.1131 -1.46002 -12.0656
upperback -0.929428 -4.54823 0.86708
thorax -10.2576 -1.50099 9.02614
lowerneck -12.4056 -6.44429 -4.75503
upperneck 19.287 -9.49321 4.70478
head 8.49948 -4.57533 1.25967
rclavicle 2.3556e-014 2.42517e-014
rhumerus 38.3214 54.4417 -42.6135
rradius 106.099
rwrist 17.3505
rhand -0.611254 27.8651
rfingers 7.12502
rthumb 25.0048 -0.518509
lclavicle 2.3556e-014 2.42517e-014
lhumerus -17.0703 -56.3557 94.1068
lradius 58.4042
lwrist 82.2719
lhand 5.6976 31.8978
lfingers 7.12502
lthumb 31.0351 59.2926
rfemur -47.8512 -15.7149 9.61782
rtibia 67.6493
rfoot -13.7063 -2.60479
rtoes 7.30582
lfemur -16.2065 36.7051 -20.2657
ltibia 65.0197
lfoot -35.8492 16.8501
ltoes -18.9041
3009
root 1.3944 14.3067 -13.7949 -540.162 -32.0332 532.932
lowerback 18.1234 -1.44674 -11.9003
upperback -0.893272 -4.47777 0.99656
thorax -10.2384 -1.47497 9.06146
lowerneck -12.4828 -6.42731 -4.88495
upperneck 19.3161 -9.48194 4.88748
head 8.53887 -4.55951 1.33906
rclavicle 3.59303e-014 -3.37934e-014
rhumerus 38.3863 54.4865 -42.567
rradius 106.147
rwrist 17.3825
rhand -0.684166 27.6883
rfingers 7.12502
rthumb 24.9349 -0.704962
lclavicle 3.59303e-014 -3.37934e-014
lhumerus -16.9198 -56.2351 94.0063
lradius 58.3777
lwrist 82.2127
lhand 5.66562 32.0703
lfingers 7.12502
lthumb 31.0046 59.4708
rfemur -47.757 -15.4317 10.0982
rtibia 67.6465
rfoot -13.9664 -2.77245
rtoes 8.08668
lfemur -16.1445 36.8221 -19.619
ltibia 65.0898
lfoot -35.8248 16.4421
ltoes -18.4097
